# xmcd
# 
# Track frame offsets:
#     150
#     21998
#     39532
#     56018
#     74703
#     96636
#     114985
#     128467
#     144546
#     159654
#     177743
#     194538
#     216597
# 
# Disc length: 3182
# 
# Revision: 9
# Processed by: cddbd v1.5.2PL0 Copyright (c) Steve Scherf et al.
# Submitted via: BonkEnc v1.0.8
# 
DISCID=d10c6c0d
DTITLE=Various Artist - Dés - "ennyi a dal"
DYEAR=2000
DGENRE=Rock
TTITLE0=Jazz+Az - Megint hétfõ [Geszti]
TTITLE1=Somló Tamás - Olyan szépek voltunk [Nemes]
TTITLE2=Demjén Ferenc - Szerelem elsõ vérig [Demjén]
TTITLE3=Jazz+Az - Csepp a tengerben [Geszti]
TTITLE4=Kulka János - Ez a hely [Nemes]
TTITLE5=Udvaros Dorottya - Hóesés [Bereményi]
TTITLE6=Dés László - Vigyázz rám [Nemes]
TTITLE7=Szulák Andrea - C'est la vie [Geszti]
TTITLE8=Charlie and Gerendás Péter - Amig õriz a szemed [Geszti]
TTITLE9=Presser Gábor - Nagy utazás [Bereményi]
TTITLE10=Kulka János and Tunyogi Bernadett - A zene [Nemes]
TTITLE11=Básti Juli and Cserhalmi György - Hallgass kicsit [Bereményi]
TTITLE12=Dés László - Akarsz-e? [Geszti]
EXTD=
EXTT0=
EXTT1=
EXTT2=
EXTT3=
EXTT4=
EXTT5=
EXTT6=
EXTT7=
EXTT8=
EXTT9=
EXTT10=
EXTT11=
EXTT12=
PLAYORDER=
